<?xml version="1.0" encoding="utf-8"?>
<!-- Generator: Adobe Illustrator 27.9.0, SVG Export Plug-In . SVG Version: 6.00 Build 0)  -->
<svg version="1.1" xmlns="http://www.w3.org/2000/svg" xmlns:xlink="http://www.w3.org/1999/xlink" x="0px" y="0px"
	 viewBox="0 0 800 800" style="enable-background:new 0 0 800 800;" xml:space="preserve">
<style type="text/css">
	.st0{opacity:0;}
	.st1{fill-rule:evenodd;clip-rule:evenodd;fill:#FFFFFF;fill-opacity:0;}
	.st2{fill-rule:evenodd;clip-rule:evenodd;fill:#FFFFFF;}
	.st3{fill-rule:evenodd;clip-rule:evenodd;}
</style>
<g id="Layer_1" class="st0">
</g>
<g id="Layer_2">
	<g>
		<path class="st1" d="M8.1,8h804.4v804.4H8.1V8z"/>
		<path class="st2" d="M471.1,270.1c15.2,20.4,43.7,58.5,109.9,80L496.4,265c-5-5-0.2-9.2,4.6-4.5l73,71.7c0,0,31.3,30.6,66.7,31.3
			L521.1,249.1c-4.9-4.7,0.1-9.4,4.9-4.8l96.1,94.2c0,0,29,30.1,66.7,30.1l-149-141.8c-6.4-6.1-1.4-11.2,4.9-5l127.1,124.3
			c0,0,21.5,26.7,59.7,25c0,0-23.8-15.1-41.7-34.8C671.9,316.5,552,198.9,552,198.9c-5.4-6.1,1-8.8,5.2-4.6l150.6,148.2
			c0,0,30.7,34.8,66,28.4c0,0-15.7-9.3-37.7-31.3c-22-22-190.5-187.1-190.5-187.1s-38.8-37.6-80-4.7c0,0-9.9,9.8-15.7,22.1
			C469.9,201.4,479.2,240.7,471.1,270.1L471.1,270.1z"/>
		<path class="st2" d="M419.4,279.8c0,0-0.7-21.7-23.2-32.1c0,0,2.8,18.9-10.8,25.6c-13.5,6.7-20.8,15-22.9,22.5
			c0,0-5.5-8.2-13.8-14.3c0,0-42,54.1-101.7,68.6l84.6-85.1c5-5,0.3-9.2-4.6-4.5l-73,71.7c0,0-31.3,30.6-66.6,31.3l119.6-114.4
			c4.8-4.7-0.2-9.4-5-4.8l-96.1,94.2c0,0-29,30.1-66.6,30.1l149-141.8c6.3-6.1,1.4-11.2-5-5L156,346.1c0,0-21.5,26.7-59.6,25
			c0,0,23.7-15.1,41.6-34.8c18-19.7,137.9-137.3,137.9-137.3c5.4-6.1-1-8.8-5.2-4.6L120.1,342.6c0,0-30.6,34.8-66,28.4
			c0,0,15.6-9.3,37.6-31.3c22-22,190.6-187.1,190.6-187.1s38.8-37.6,79.9-4.7c0,0,20.5,16.2,19.7,40c-0.4,8.3,7.8,9,7.5,0.6
			c0,0-0.6-27.2-20.3-43.9c0,0,4.6-29,20.8-48.7c0,0-19.7-17.3,2.3-32.4c0,0,1.7,12.1,17.9,12.1h20.9c0,0,17.9-2.8,23.7,15
			c0,0,27.2-7.5,27.2,25c0,0-18.1-8-26-5.8c-8,2.1-25.5,4.7-25.5,25.5c0,20.9,4,26,13.9,42.8c9.8,16.8,23.1,48.1,23.1,77
			s-15.6,46.9-15.6,52.1c0,0-10.5-9.8-1.7-38.3C438.3,269.6,428.1,273.1,419.4,279.8L419.4,279.8z"/>
		<path class="st2" d="M489.2,353.9c0,0-1.3,19.2,11.5,29.1H386.1c0,0,2.1-20.4-13.4-38c0,0,1.7-8.9,7-12.3
			c5.3-3.4,9.2-10.2,8.9-16.7c0,0,14.5,8.7,16.7,28c0,0,4-11.3,15.2-22.7c0,0,0,21.2,25.2,35.6c0,0,4.5-3.4,6.8-7.2
			c2.4-3.8,3.2-11,3.2-11s11,4,14.4,31.8C475.3,362.1,481.6,356.6,489.2,353.9L489.2,353.9z"/>
		<path class="st2" d="M323,345.4c0,0,4,5.9,2.8,10.9c-1.3,5-11.9,10.9-14.4,17c-2.5,6.1-0.9,9.6-0.9,9.6h-45.2
			c0,0-14.7-15.2,5.3-33.1c0,0-0.9,9.9,4.7,13.9c5.6,4,11.5,2.1,14.2-2.8c2.7-4.9,9.5-27.5,22-31.8c0,0,1.5,4.3,6.1,7.4
			c4.7,3.1,13.6-0.4,18.4,2.4c0,0-5.3-11.5,1.6-20.9c6.9-9.5,12.8-18,11.8-24.9c0,0,6.4,1.7,13.6,17.4c0,0,2.1-17.2,16.1-24.6
			c14-7.2,21.6-17.1,21.3-26.9c0,0,15,5.3,12.5,35.5c0,0,12.3-16.5,28.7-17.4c0,0-3.2,11.5-1.1,20.4c2,9,3.1,19,13.5,26
			c0,0,1.2-11.6,9.6-15.5c8.4-3.9,13.3-11.9,13.1-18.5c0,0,11.1,4.8,7.8,22.2c-3.4,17.3,2.4,18.1,2.4,18.1s6.1-10.9,17.6-11.1
			c0,0-3.4,18.8,14.8,34.7c0,0-0.6-4.5,2.1-9.2c2.7-4.7,3.8-9.9,3.1-12.5c0,0,18.5,14.5,22,35.7c0,0,6-4.3,9.4-11.3
			c0,0,8.3,6.8,8.3,15s-5,11.9-5,11.9h-45.5c0,0-21-9.1-17.6-37.2c0,0-9.6-2.2-20.5,8.7c0,0-9.4-15.7-21.4-24.7c0,0-7.3,12.6-9.5,15
			c0,0-17.2-11-18.8-34.4c0,0-11.6,4-18.7,16.3c0,0-6.5-13.5-25.3-23.9c0,0,1.7,14.4-4.9,21.3c-6.6,6.9-9.1,13.5-9.1,13.5
			s-9.2-4.7-10.4-15c0,0-9.7,4.8-16.1,27.4C335.2,345.6,329.1,344.7,323,345.4L323,345.4z"/>
		<path class="st2" d="M376.4,382.9h-57.1c0,0,0.3-9.9,7.2-14.4c6.9-4.6,7.2-11.2,6.6-14.3c0,0,7.1,1.7,9.1,4.9c2.1,3,3.9,6.9,8,7.3
			c0,0-3.5-20.3,4.5-28.5c0,0,4.2,7.5,9.4,11.1C369.2,352.7,378.4,365.1,376.4,382.9L376.4,382.9z M777,390.4L410.3,757L43.6,390.4
			H777z"/>
		<path class="st3" d="M427.2,82.2c0,0,3.5,3.7,8.2,3.7c4.7,0,9,2.4,9,5.5c0,0-5,0.1-8.4,2C432.5,95.2,424.4,90.8,427.2,82.2
			L427.2,82.2z M214.9,514.6h24.6l3-10.3h24.7l2.9,10.3h24.8L267.6,437h-25.3L214.9,514.6L214.9,514.6z"/>
		<path class="st2" d="M247,488l7.9-26.9l7.8,26.9H247z"/>
		<path class="st3" d="M578.5,484.5c-0.7,8.3-5.5,12.9-13.2,12.9c-10,0-15.3-7.3-15.3-21.6c0-14.3,4.9-21.5,14.7-21.5
			c8.1,0,12.5,4.1,13.2,12h23.9c-1.5-20.1-14.8-31.5-37.3-31.5c-24.3,0-39.5,15.6-39.5,40.9c0,25.3,15.1,41,40.1,41
			c22.3,0,35.9-11.9,37.2-32.4L578.5,484.5L578.5,484.5z M374.6,655.2c1.5,16.5,13.8,26.4,34.6,26.4c22.7,0,34.8-9.9,34.8-26.7
			c0-8-3.1-13.7-10-18.2c-5-3.4-12.6-4.9-22.2-7.3c-7.5-1.9-11.5-2.8-11.5-6.8c0-3.6,2.6-5.3,7.8-5.3c6.1,0,9.3,2.2,10,6.8h23.7
			c-1.4-15.6-13.1-24.4-33.2-24.4c-20.7,0-32.6,9.7-32.6,24.8c0,7.6,2.9,13.6,9,17.9c3.2,2.3,10.3,4.7,20.9,7.4
			c9.2,2.4,13.8,2.8,13.8,7.7c0,3.4-3.4,5.6-9.4,5.6c-6.7,0-10-2.1-11.3-7.9L374.6,655.2L374.6,655.2z M422.9,441.8
			c3.6-4.7,9.2-7.3,15-7.2h20.5v-17.1h-32.3c0,0-7.5,0.7-13.9,7.8L422.9,441.8L422.9,441.8z M372.8,478.2c1,0,2,0.1,2.9,0.2
			l18.3-26.8l9.6,16.6l-13.5,20.2c1.7,2.8,2.6,6.1,2.6,9.7c0,11-8.9,19.9-19.9,19.9c-0.7,0-1.6-0.1-2.3-0.2l-19.3,29
			c0,0-5.4,7.8,2.5,9.2c2.9-5.2,8.3-8.5,14.3-8.5c6.2,0,11.6,3.6,14.4,8.8h11.2c2.7-5.4,8.3-8.8,14.3-8.8c6.2,0,11.6,3.6,14.4,8.8
			h11.2c2.7-5.4,8.3-8.8,14.4-8.8c6.1,0,11.5,3.5,14.2,8.5c2.4-0.6,5.9-2.3,2.1-7.9L444.1,518c-0.4,0-0.7,0.1-1.1,0.1
			c-10.9,0-19.9-9-19.9-19.9c0-3.1,0.7-6,2-8.6l-30.3-45.3c0,0-4.8-9.6-16.6-9.6h-20.5v-17.1h32.4c0,0,8.7,0.9,15.1,9.6l34.9,51.4
			c0.9-0.2,1.9-0.3,2.9-0.3c11,0,19.9,8.9,19.9,19.9c0,3.5-0.9,7-2.8,10l25,37c0,0,8.7,12.2,1.7,20.9c-7,8.8-16.1,8.3-21.4,8.3h-5.7
			c-3,3.4-7.4,5.4-12,5.4c-4.6,0-9-2-12.1-5.4h-15.9c-2.9,3.3-7.2,5.4-12,5.4c-4.8,0-9.1-2.1-12-5.4h-15.8c-3,3.3-7.3,5.4-12.1,5.4
			c-4.8,0-9.2-2.1-12.1-5.4h-8.2c0,0-13.6-0.9-18.8-10.1c-5.2-9.2-0.9-17.4,3.5-22.3l23.1-33.9c-1.7-3-2.6-6.4-2.6-9.9
			C353,487.1,361.8,478.2,372.8,478.2L372.8,478.2z"/>
	</g>
</g>
</svg>
