<?xml version="1.0" encoding="utf-8"?>
<!-- Generator: Adobe Illustrator 27.9.0, SVG Export Plug-In . SVG Version: 6.00 Build 0)  -->
<svg version="1.1" id="Layer_1" xmlns="http://www.w3.org/2000/svg" xmlns:xlink="http://www.w3.org/1999/xlink" x="0px" y="0px"
	 viewBox="0 0 508.2 141.7" style="enable-background:new 0 0 508.2 141.7;" xml:space="preserve">
<style type="text/css">
	.st0{fill:#FFFFFF;}
</style>
<g id="main_layer">
	<g>
		<path class="st0" d="M92,104.7c1.6,6,4.1,8.3,8.6,8.3c4.7,0,7.1-2.8,7.1-8.3V3.2h29.2v101.5c0,14.3-1.9,20.5-9.1,27.8
			c-5.2,5.2-14.9,9.3-27,9.3c-9.8,0-19.2-3.3-25.3-9.3c-5.3-5.3-8.2-10.7-12.7-27.8L44.9,37c-1.6-6-4.1-8.3-8.6-8.3
			c-4.7,0-7.1,2.8-7.1,8.3v101.5H0V37C0,22.7,1.9,16.5,9.1,9.3C14.3,4,24,0,36.2,0C46,0,55.4,3.3,61.4,9.3
			C66.7,14.5,69.6,20,74.1,37L92,104.7z"/>
		<path class="st0" d="M478,138.5L444.3,33.1c-0.4-1.2-0.7-2.2-1.3-2.8c-0.9-1.1-2.2-1.7-3.9-1.7c-1.7,0-3,0.6-3.9,1.7
			c-0.5,0.7-0.9,1.6-1.3,2.8l-33.7,105.4h-30.2l36.8-115.2c1.9-6,4.7-11.1,8.1-14.5C421,3,428,0,439.1,0s18.1,3,24.1,8.9
			c3.5,3.4,6.2,8.5,8.1,14.5l36.8,115.2L478,138.5L478,138.5z"/>
		<path class="st0" d="M328.9,138.5c19.1,0,28.4-4.1,35.8-11.4c8.2-8.1,12.1-17,12.1-30.2c0-11.7-4.3-22.5-10.8-29
			c-8.5-8.5-19.1-11.2-36.4-11.2l-24.2,0c-9.2,0-12.9-1.1-15.8-4c-2-2-2.9-4.9-2.9-8.3c0-3.6,0.9-7.1,3.3-9.5
			c2.2-2.1,5.1-3.1,10.8-3.1h69.9V3.2H306c-19.1,0-28.4,4.1-35.8,11.4c-8.2,8.1-12.1,17-12.1,30.2c0,11.7,4.3,22.5,10.8,29
			c8.5,8.5,19.1,11.2,36.4,11.2l24.2,0c9.2,0,12.9,1.1,15.8,4c2,2,2.9,4.9,2.9,8.3c0,3.6-0.9,7.1-3.3,9.5c-2.2,2.1-5.1,3.1-10.8,3.1
			h-72.1l-27.7-86.5c-1.9-6-4.7-11.1-8.1-14.5c-6-5.8-13-8.9-24.1-8.9s-18.1,3-24.1,8.9c-3.5,3.4-6.2,8.5-8.1,14.5l-36.8,115.2h30.2
			L197,33.1c0.4-1.2,0.7-2.2,1.3-2.8c0.9-1.1,2.2-1.7,3.9-1.7s3,0.6,3.9,1.7c0.5,0.7,0.9,1.6,1.3,2.8l33.7,105.4L328.9,138.5
			L328.9,138.5z"/>
	</g>
</g>
</svg>
